<?xml version="1.0" encoding="UTF-8"?>
<svg xmlns="http://www.w3.org/2000/svg" viewBox="0 0 96 96" width="96" height="96" role="img" aria-label="Pig Metronome">
  <defs>
    <linearGradient id="pg" x1="0" y1="0" x2="1" y2="1">
      <stop offset="0" stop-color="#667eea"/>
      <stop offset="1" stop-color="#764ba2"/>
    </linearGradient>
  </defs>
  <rect x="0" y="0" width="96" height="96" fill="url(#pg)"/>
  <g transform="translate(48 48) scale(0.8) translate(-48 -48)">
  <path d="M27 31 L41 21 L45 40 Z" fill="rgb(230,147,157)"/>
  <path d="M69 31 L55 21 L51 40 Z" fill="rgb(230,147,157)"/>
  <path d="M31 32 L40 25 L43 38 Z" fill="rgb(210,118,130)"/>
  <path d="M65 32 L56 25 L53 38 Z" fill="rgb(210,118,130)"/>
  <ellipse cx="48" cy="52" rx="31" ry="28" fill="rgb(246,188,196)"/>
  <ellipse cx="31" cy="57" rx="6" ry="4.2" fill="rgb(242,154,176)" opacity="0.55"/>
  <ellipse cx="65" cy="57" rx="6" ry="4.2" fill="rgb(242,154,176)" opacity="0.55"/>
  <ellipse cx="39" cy="47" rx="3.1" ry="4.2" fill="rgb(53,34,38)"/>
  <ellipse cx="57" cy="47" rx="3.1" ry="4.2" fill="rgb(53,34,38)"/>
  <ellipse cx="40.1" cy="45.4" rx="1" ry="1.3" fill="rgb(255,255,255)"/>
  <ellipse cx="58.1" cy="45.4" rx="1" ry="1.3" fill="rgb(255,255,255)"/>
  <ellipse cx="48" cy="61" rx="15" ry="11" fill="rgb(226,111,121)"/>
  <ellipse cx="43" cy="61" rx="2.3" ry="3.6" fill="rgb(53,34,38)"/>
  <ellipse cx="53" cy="61" rx="2.3" ry="3.6" fill="rgb(53,34,38)"/>
  </g>
</svg>
